<svg height="480pt" viewBox="0 -96 480 480" width="480pt" xmlns="http://www.w3.org/2000/svg"><path d="m480 124.800781-60-68.800781h-60v-32c0-13.601562-10.398438-24-24-24h-256c-13.601562 0-24 10.398438-24 24v192c0 13.601562 10.398438 24 24 24h32c2.398438 28.800781 27.199219 50.398438 56 48 25.601562-1.601562 45.601562-22.398438 48-48h104c2.398438 28.800781 27.199219 50.398438 56 48 25.601562-1.601562 45.601562-22.398438 48-48h32c13.601562 0 24-10.398438 24-24zm-120-52.800781h52l52 59.199219v12.800781h-104zm-196 200c-20 0-36-16-36-36s16-36 36-36 36 16 36 36-16 36-36 36zm208 0c-20 0-36-16-36-36s16-36 36-36 36 16 36 36-16 36-36 36zm84-48h-33.601562c-6.398438-28-34.398438-45.601562-62.398438-38.398438-19.199219 4.796876-34.398438 19.199219-38.398438 38.398438h-107.203124c-6.398438-28-34.398438-45.601562-62.398438-38.398438-19.199219 4.796876-34.398438 19.199219-38.398438 38.398438h-33.601562c-4.800781 0-8-3.199219-8-8v-192c0-4.800781 3.199219-8 8-8h256c4.800781 0 8 3.199219 8 8v120h-256v16h376v56c0 4.800781-3.199219 8-8 8zm0 0"/><path d="m16 56h24v16h-24zm0 0"/><path d="m146.457031 242.082031 23.855469-23.660156 11.269531 11.359375-23.855469 23.664062zm0 0"/><path d="m354.460938 242.222656 23.757812-23.757812 11.3125 11.3125-23.757812 23.757812zm0 0"/><path d="m8 80h32v16h-32zm0 0"/><path d="m0 104h40v16h-40zm0 0"/><path d="m197.601562 66.398438-11.203124 11.203124 21.601562 21.597657 53.601562-53.597657-11.203124-11.203124-42.398438 42.402343zm0 0"/><path d="m185.601562 128h44.796876c14.402343 0 25.601562-11.199219 25.601562-25.601562v-14.398438h-16v14.398438c0 5.601562-4 9.601562-9.601562 9.601562h-44.796876c-5.601562 0-9.601562-4-9.601562-9.601562v-44.796876c0-5.601562 4-9.601562 9.601562-9.601562h22.398438v-16h-22.398438c-14.402343 0-25.601562 11.199219-25.601562 25.601562v44.796876c0 14.402343 11.199219 25.601562 25.601562 25.601562zm0 0"/></svg>