<?xml version="1.0" encoding="UTF-8"?>
<!DOCTYPE svg PUBLIC "-//W3C//DTD SVG 1.1//EN" "http://www.w3.org/Graphics/SVG/1.1/DTD/svg11.dtd">
<!-- Creator: CorelDRAW X8 -->
<svg xmlns="http://www.w3.org/2000/svg" xml:space="preserve" width="210mm" height="297mm" version="1.1" style="shape-rendering:geometricPrecision; text-rendering:geometricPrecision; image-rendering:optimizeQuality; fill-rule:evenodd; clip-rule:evenodd"
viewBox="0 0 21000 29700"
 xmlns:xlink="http://www.w3.org/1999/xlink">
 <defs>
  <style type="text/css">
   <![CDATA[
    .str0 {stroke:#373435;stroke-width:7.62}
    .fil0 {fill:#373435}
   ]]>
  </style>
 </defs>
 <g id="Capa_x0020_1">
  <metadata id="CorelCorpID_0Corel-Layer"/>
  <path class="fil0 str0" d="M10248 12725c-469,0 -850,-382 -850,-851l0 -3172c0,-469 381,-851 850,-851 469,0 851,382 851,851l0 3172c0,469 -382,851 -851,851zm0 -4432c-225,0 -409,183 -409,409l0 3172c0,226 184,409 409,409 226,0 410,-183 410,-409l0 -3172c0,-226 -184,-409 -410,-409z"/>
  <path class="fil0 str0" d="M10248 20257c-2998,0 -5438,-2439 -5438,-5438 0,-2388 1598,-4532 3886,-5212 67,-20 139,-7 195,34 56,42 89,108 89,177l0 1587c0,87 -52,167 -133,202 -1277,558 -2103,1819 -2103,3212 0,1932 1572,3504 3504,3504 1933,0 3505,-1572 3505,-3504 0,-1393 -826,-2654 -2103,-3212 -81,-35 -133,-115 -133,-202l0 -1587c0,-69 33,-135 89,-177 56,-41 128,-54 195,-34 2288,680 3886,2824 3886,5212 0,2999 -2440,5438 -5439,5438zm-1710 -10133c-1949,711 -3286,2600 -3286,4695 0,2755 2241,4997 4996,4997 2756,0 4997,-2242 4997,-4997 0,-2095 -1337,-3984 -3286,-4695l0 1139c1362,656 2235,2036 2235,3556 0,2176 -1770,3946 -3946,3946 -2175,0 -3945,-1770 -3945,-3946 0,-1520 872,-2900 2235,-3556l0 -1139z"/>
  <g id="_1674517150592">
  </g>
  <g id="_1674517149888">
  </g>
  <g id="_1674517149824">
  </g>
  <g id="_1674517150240">
  </g>
  <g id="_1674517149120">
  </g>
  <g id="_1674517149632">
  </g>
  <g id="_1674517150432">
  </g>
  <g id="_1674517148672">
  </g>
  <g id="_1674517147872">
  </g>
  <g id="_1674517147392">
  </g>
  <g id="_1674517148800">
  </g>
  <g id="_1674517148768">
  </g>
  <g id="_1674517148288">
  </g>
  <g id="_1674517147488">
  </g>
  <g id="_1673814712720">
  </g>
 </g>
</svg>
