<?xml version="1.0" encoding="UTF-8"?>
<!DOCTYPE svg PUBLIC "-//W3C//DTD SVG 1.1//EN" "http://www.w3.org/Graphics/SVG/1.1/DTD/svg11.dtd">
<!-- Creator: CorelDRAW X8 -->
<svg xmlns="http://www.w3.org/2000/svg" xml:space="preserve" width="71.9377mm" height="125.035mm" version="1.1" style="shape-rendering:geometricPrecision; text-rendering:geometricPrecision; image-rendering:optimizeQuality; fill-rule:evenodd; clip-rule:evenodd"
viewBox="0 0 4997 8685"
 xmlns:xlink="http://www.w3.org/1999/xlink">
 <defs>
  <style type="text/css">
   <![CDATA[
    .fil0 {fill:white}
   ]]>
  </style>
 </defs>
 <g id="Capa_x0020_1">
  <metadata id="CorelCorpID_0Corel-Layer"/>
  <path class="fil0" d="M2262 6575c-576,0 -1044,474 -1044,1055 0,582 468,1055 1044,1055 282,0 548,-112 749,-317 194,-197 305,-467 305,-738 0,-279 -110,-543 -311,-744 -200,-200 -465,-311 -743,-311l0 0zm0 1737c-370,0 -671,-306 -671,-682 0,-376 301,-682 671,-682 369,0 682,312 682,682 0,370 -313,682 -682,682zm0 0z"/>
  <path class="fil0" d="M4057 3665c78,68 195,60 263,-17 449,-515 677,-1053 677,-1601 0,-577 -260,-1101 -731,-1474 -473,-375 -1115,-573 -1858,-573 -918,0 -1486,310 -1800,570 -381,314 -608,736 -608,1127 0,255 104,479 294,632 155,126 363,198 569,198 355,0 511,-230 636,-414 159,-234 308,-455 875,-455 195,0 829,42 829,581 0,406 -376,695 -707,950 -82,62 -160,122 -232,183 -382,329 -820,838 -820,1856 0,565 137,942 806,942 297,0 521,-67 666,-200 122,-111 186,-266 186,-449 0,-549 0,-825 560,-1263l10 -8c24,-19 53,-41 84,-67 80,-64 93,-181 28,-262 -64,-80 -181,-92 -262,-28 -29,24 -56,45 -79,64l-10 7c-671,525 -704,914 -704,1557 0,83 0,276 -479,276 -233,0 -305,-49 -341,-91 -62,-75 -93,-231 -93,-478 0,-862 350,-1279 690,-1573 65,-54 138,-111 217,-171 380,-292 853,-655 853,-1245 0,-579 -472,-953 -1202,-953 -764,0 -1006,357 -1183,617 -121,179 -176,251 -328,251 -197,0 -490,-122 -490,-457 0,-217 124,-552 472,-840 268,-221 756,-484 1563,-484 1305,0 2216,688 2216,1674 0,455 -197,911 -585,1356 -67,77 -59,195 18,262l0 0zm0 0z"/>
 </g>
</svg>
